<?xml version="1.0" encoding="UTF-8" standalone="no"?>
<svg
   xmlns:osb="http://www.openswatchbook.org/uri/2009/osb"
   xmlns:dc="http://purl.org/dc/elements/1.1/"
   xmlns:cc="http://creativecommons.org/ns#"
   xmlns:rdf="http://www.w3.org/1999/02/22-rdf-syntax-ns#"
   xmlns:svg="http://www.w3.org/2000/svg"
   xmlns="http://www.w3.org/2000/svg"
   xmlns:sodipodi="http://sodipodi.sourceforge.net/DTD/sodipodi-0.dtd"
   xmlns:inkscape="http://www.inkscape.org/namespaces/inkscape"
   id="svg8"
   version="1.1"
   viewBox="0 0 210 297"
   height="297mm"
   width="210mm"
   sodipodi:docname="eom_schematic.svg"
   inkscape:version="1.0 (4035a4fb49, 2020-05-01)">
  <defs
     id="defs2">
    <marker
       inkscape:stockid="Arrow1Lend"
       orient="auto"
       refY="0.0"
       refX="0.0"
       id="marker4189"
       style="overflow:visible;"
       inkscape:isstock="true">
      <path
         id="path4187"
         d="M 0.0,0.0 L 5.0,-5.0 L -12.5,0.0 L 5.0,5.0 L 0.0,0.0 z "
         style="fill-rule:evenodd;stroke:#000000;stroke-width:1pt;stroke-opacity:1;fill:#000000;fill-opacity:1"
         transform="scale(0.8) rotate(180) translate(12.5,0)" />
    </marker>
    <marker
       inkscape:isstock="true"
       style="overflow:visible"
       id="Arrow1Lstart"
       refX="0.0"
       refY="0.0"
       orient="auto"
       inkscape:stockid="Arrow1Lstart">
      <path
         transform="scale(0.8) translate(12.5,0)"
         style="fill-rule:evenodd;stroke:#000000;stroke-width:1pt;stroke-opacity:1;fill:#000000;fill-opacity:1"
         d="M 0.0,0.0 L 5.0,-5.0 L -12.5,0.0 L 5.0,5.0 L 0.0,0.0 z "
         id="path3751" />
    </marker>
    <marker
       inkscape:collect="always"
       inkscape:isstock="true"
       style="overflow:visible;"
       id="Arrow1Lend"
       refX="0.0"
       refY="0.0"
       orient="auto"
       inkscape:stockid="Arrow1Lend">
      <path
         transform="scale(0.8) rotate(180) translate(12.5,0)"
         style="fill-rule:evenodd;stroke:#000000;stroke-width:1pt;stroke-opacity:1;fill:#000000;fill-opacity:1"
         d="M 0.0,0.0 L 5.0,-5.0 L -12.5,0.0 L 5.0,5.0 L 0.0,0.0 z "
         id="path3754" />
    </marker>
    <linearGradient
       osb:paint="solid"
       id="linearGradient2866">
      <stop
         id="stop2864"
         offset="0"
         style="stop-color:#c8c8c8;stop-opacity:1;" />
    </linearGradient>
    <inkscape:perspective
       sodipodi:type="inkscape:persp3d"
       inkscape:vp_x="-1.8110966 : 154.27154 : 1"
       inkscape:vp_y="0 : 1000 : 0"
       inkscape:vp_z="208.1889 : 154.27154 : 1"
       inkscape:persp3d-origin="103.1889 : 104.77154 : 1"
       id="perspective835" />
    <mask
       id="mask3186"
       maskUnits="userSpaceOnUse">
      <ellipse
         transform="rotate(-90)"
         style="fill:#ffffff;fill-opacity:1;stroke:#000003;stroke-width:0.0721678;stroke-linejoin:round;stroke-miterlimit:4;stroke-dasharray:none;stroke-opacity:1"
         id="ellipse3188"
         cy="44.650681"
         cx="-89.920135"
         rx="4.3917389"
         ry="2.9309757" />
    </mask>
    <mask
       id="mask3190"
       maskUnits="userSpaceOnUse">
      <ellipse
         transform="rotate(-90)"
         style="fill:#ffffff;fill-opacity:1;stroke:#000003;stroke-width:0.0721678;stroke-linejoin:round;stroke-miterlimit:4;stroke-dasharray:none;stroke-opacity:1"
         id="ellipse3192"
         cy="44.650681"
         cx="-89.920135"
         rx="4.3917389"
         ry="2.9309757" />
    </mask>
    <mask
       id="mask3194"
       maskUnits="userSpaceOnUse">
      <ellipse
         transform="rotate(-90)"
         style="fill:#ffffff;fill-opacity:1;stroke:#000003;stroke-width:0.0721678;stroke-linejoin:round;stroke-miterlimit:4;stroke-dasharray:none;stroke-opacity:1"
         id="ellipse3196"
         cy="44.650681"
         cx="-89.920135"
         rx="4.3917389"
         ry="2.9309757" />
    </mask>
    <mask
       id="mask3198"
       maskUnits="userSpaceOnUse">
      <ellipse
         transform="rotate(-90)"
         style="fill:#ffffff;fill-opacity:1;stroke:#000003;stroke-width:0.0721678;stroke-linejoin:round;stroke-miterlimit:4;stroke-dasharray:none;stroke-opacity:1"
         id="ellipse3200"
         cy="44.650681"
         cx="-89.920135"
         rx="4.3917389"
         ry="2.9309757" />
    </mask>
    <mask
       id="mask3202"
       maskUnits="userSpaceOnUse">
      <ellipse
         transform="rotate(-90)"
         style="fill:#ffffff;fill-opacity:1;stroke:#000003;stroke-width:0.0721678;stroke-linejoin:round;stroke-miterlimit:4;stroke-dasharray:none;stroke-opacity:1"
         id="ellipse3204"
         cy="44.650681"
         cx="-89.920135"
         rx="4.3917389"
         ry="2.9309757" />
    </mask>
    <mask
       id="mask3206"
       maskUnits="userSpaceOnUse">
      <ellipse
         transform="rotate(-90)"
         style="fill:#ffffff;fill-opacity:1;stroke:#000003;stroke-width:0.0721678;stroke-linejoin:round;stroke-miterlimit:4;stroke-dasharray:none;stroke-opacity:1"
         id="ellipse3208"
         cy="44.650681"
         cx="-89.920135"
         rx="4.3917389"
         ry="2.9309757" />
    </mask>
    <mask
       id="mask3210"
       maskUnits="userSpaceOnUse">
      <ellipse
         transform="rotate(-90)"
         style="fill:#ffffff;fill-opacity:1;stroke:#000003;stroke-width:0.0721678;stroke-linejoin:round;stroke-miterlimit:4;stroke-dasharray:none;stroke-opacity:1"
         id="ellipse3212"
         cy="44.650681"
         cx="-89.920135"
         rx="4.3917389"
         ry="2.9309757" />
    </mask>
    <mask
       id="mask3214"
       maskUnits="userSpaceOnUse">
      <ellipse
         transform="rotate(-90)"
         style="fill:#ffffff;fill-opacity:1;stroke:#000003;stroke-width:0.0721678;stroke-linejoin:round;stroke-miterlimit:4;stroke-dasharray:none;stroke-opacity:1"
         id="ellipse3216"
         cy="44.650681"
         cx="-89.920135"
         rx="4.3917389"
         ry="2.9309757" />
    </mask>
    <mask
       id="mask3218"
       maskUnits="userSpaceOnUse">
      <ellipse
         transform="rotate(-90)"
         style="fill:#ffffff;fill-opacity:1;stroke:#000003;stroke-width:0.0721678;stroke-linejoin:round;stroke-miterlimit:4;stroke-dasharray:none;stroke-opacity:1"
         id="ellipse3220"
         cy="44.650681"
         cx="-89.920135"
         rx="4.3917389"
         ry="2.9309757" />
    </mask>
    <mask
       id="mask3222"
       maskUnits="userSpaceOnUse">
      <ellipse
         transform="rotate(-90)"
         style="fill:#ffffff;fill-opacity:1;stroke:#000003;stroke-width:0.0721678;stroke-linejoin:round;stroke-miterlimit:4;stroke-dasharray:none;stroke-opacity:1"
         id="ellipse3224"
         cy="44.650681"
         cx="-89.920135"
         rx="4.3917389"
         ry="2.9309757" />
    </mask>
    <mask
       id="mask3226"
       maskUnits="userSpaceOnUse">
      <ellipse
         transform="rotate(-90)"
         style="fill:#ffffff;fill-opacity:1;stroke:#000003;stroke-width:0.0721678;stroke-linejoin:round;stroke-miterlimit:4;stroke-dasharray:none;stroke-opacity:1"
         id="ellipse3228"
         cy="44.650681"
         cx="-89.920135"
         rx="4.3917389"
         ry="2.9309757" />
    </mask>
    <mask
       id="mask3230"
       maskUnits="userSpaceOnUse">
      <ellipse
         transform="rotate(-90)"
         style="fill:#ffffff;fill-opacity:1;stroke:#000003;stroke-width:0.0721678;stroke-linejoin:round;stroke-miterlimit:4;stroke-dasharray:none;stroke-opacity:1"
         id="ellipse3232"
         cy="44.650681"
         cx="-89.920135"
         rx="4.3917389"
         ry="2.9309757" />
    </mask>
    <mask
       id="mask3234"
       maskUnits="userSpaceOnUse">
      <ellipse
         transform="rotate(-90)"
         style="fill:#ffffff;fill-opacity:1;stroke:#000003;stroke-width:0.0721678;stroke-linejoin:round;stroke-miterlimit:4;stroke-dasharray:none;stroke-opacity:1"
         id="ellipse3236"
         cy="44.650681"
         cx="-89.920135"
         rx="4.3917389"
         ry="2.9309757" />
    </mask>
    <mask
       id="mask3238"
       maskUnits="userSpaceOnUse">
      <ellipse
         transform="rotate(-90)"
         style="fill:#ffffff;fill-opacity:1;stroke:#000003;stroke-width:0.0721678;stroke-linejoin:round;stroke-miterlimit:4;stroke-dasharray:none;stroke-opacity:1"
         id="ellipse3240"
         cy="44.650681"
         cx="-89.920135"
         rx="4.3917389"
         ry="2.9309757" />
    </mask>
    <mask
       id="mask3242"
       maskUnits="userSpaceOnUse">
      <ellipse
         transform="rotate(-90)"
         style="fill:#ffffff;fill-opacity:1;stroke:#000003;stroke-width:0.0721678;stroke-linejoin:round;stroke-miterlimit:4;stroke-dasharray:none;stroke-opacity:1"
         id="ellipse3244"
         cy="44.650681"
         cx="-89.920135"
         rx="4.3917389"
         ry="2.9309757" />
    </mask>
    <mask
       id="mask3246"
       maskUnits="userSpaceOnUse">
      <ellipse
         transform="rotate(-90)"
         style="fill:#ffffff;fill-opacity:1;stroke:#000003;stroke-width:0.0721678;stroke-linejoin:round;stroke-miterlimit:4;stroke-dasharray:none;stroke-opacity:1"
         id="ellipse3248"
         cy="44.650681"
         cx="-89.920135"
         rx="4.3917389"
         ry="2.9309757" />
    </mask>
    <mask
       id="mask3250"
       maskUnits="userSpaceOnUse">
      <ellipse
         transform="rotate(-90)"
         style="fill:#ffffff;fill-opacity:1;stroke:#000003;stroke-width:0.0721678;stroke-linejoin:round;stroke-miterlimit:4;stroke-dasharray:none;stroke-opacity:1"
         id="ellipse3252"
         cy="44.650681"
         cx="-89.920135"
         rx="4.3917389"
         ry="2.9309757" />
    </mask>
    <mask
       id="mask3254"
       maskUnits="userSpaceOnUse">
      <ellipse
         transform="rotate(-90)"
         style="fill:#ffffff;fill-opacity:1;stroke:#000003;stroke-width:0.0721678;stroke-linejoin:round;stroke-miterlimit:4;stroke-dasharray:none;stroke-opacity:1"
         id="ellipse3256"
         cy="44.650681"
         cx="-89.920135"
         rx="4.3917389"
         ry="2.9309757" />
    </mask>
    <mask
       id="mask3258"
       maskUnits="userSpaceOnUse">
      <ellipse
         transform="rotate(-90)"
         style="fill:#ffffff;fill-opacity:1;stroke:#000003;stroke-width:0.0721678;stroke-linejoin:round;stroke-miterlimit:4;stroke-dasharray:none;stroke-opacity:1"
         id="ellipse3260"
         cy="44.650681"
         cx="-89.920135"
         rx="4.3917389"
         ry="2.9309757" />
    </mask>
    <mask
       id="mask3262"
       maskUnits="userSpaceOnUse">
      <ellipse
         transform="rotate(-90)"
         style="fill:#ffffff;fill-opacity:1;stroke:#000003;stroke-width:0.0721678;stroke-linejoin:round;stroke-miterlimit:4;stroke-dasharray:none;stroke-opacity:1"
         id="ellipse3264"
         cy="44.650681"
         cx="-89.920135"
         rx="4.3917389"
         ry="2.9309757" />
    </mask>
  </defs>
  <sodipodi:namedview
     id="base"
     pagecolor="#ffffff"
     bordercolor="#666666"
     borderopacity="1.0"
     inkscape:pageopacity="0.0"
     inkscape:pageshadow="2"
     inkscape:zoom="6.4148085"
     inkscape:cx="280.31677"
     inkscape:cy="525.34996"
     inkscape:document-units="mm"
     inkscape:current-layer="layer1"
     inkscape:document-rotation="0"
     showgrid="true"
     showguides="true"
     inkscape:guide-bbox="true"
     inkscape:window-width="1366"
     inkscape:window-height="713"
     inkscape:window-x="0"
     inkscape:window-y="0"
     inkscape:window-maximized="1" />
  <metadata
     id="metadata5">
    <rdf:RDF>
      <cc:Work
         rdf:about="">
        <dc:format>image/svg+xml</dc:format>
        <dc:type
           rdf:resource="http://purl.org/dc/dcmitype/StillImage" />
        <dc:title></dc:title>
      </cc:Work>
    </rdf:RDF>
  </metadata>
  <g
     inkscape:label="Ebene 1"
     inkscape:groupmode="layer"
     id="layer1">
    <g
       id="g1491-9-15-3"
       transform="matrix(0.63888406,0,0,0.62357807,66.009743,40.158703)"
       style="stroke-width:0.158432;stroke-miterlimit:4;stroke-dasharray:none;paint-order:markers stroke fill">
      <path
         id="path1442-0-2-5-2-6"
         title="sin(x)"
         d="m 8.3603827,152.43058 c -0.02144,-0.45142 -0.04252,-0.90224 -0.03798,-1.30957 0.0049,-0.40675 0.03609,-0.76882 0.114757,-1.05036 0.07865,-0.28155 0.205108,-0.48198 0.390445,-0.58249 0.184975,-0.1011 0.4298859,-0.10051 0.7336594,0 0.303398,0.0999 0.6664259,0.30094 1.0768969,0.58249 0.410428,0.28154 0.868334,0.64361 1.35257,1.05036 0.484224,0.40674 0.994746,0.85815 1.505311,1.30957"
         style="fill:#285a79;fill-opacity:1;stroke:#000000;stroke-width:0.158432;stroke-linecap:round;stroke-linejoin:round;stroke-miterlimit:4;stroke-dasharray:none;stroke-opacity:1;paint-order:normal" />
      <path
         id="path1442-02-4-1"
         title="sin(x)"
         d="m 0.0781716,152.432 c 0.2445554,-0.768 0.4891104,-1.535 0.7336654,-2.228 0.244553,-0.692 0.489113,-1.308 0.733663,-1.787 0.24456,-0.479 0.48911,-0.82 0.73367,-0.991 0.24455,-0.172 0.48911,-0.171 0.73366,0 0.24456,0.17 0.48911,0.512 0.73367,0.991 0.24455,0.479 0.48911,1.095 0.73366,1.787 0.24456,0.692 0.48911,1.46 0.73367,2.228"
         style="fill:#636365;fill-opacity:0.435294;stroke:#000000;stroke-width:0.158432;stroke-linecap:round;stroke-linejoin:round;stroke-miterlimit:4;stroke-dasharray:none;stroke-opacity:1;paint-order:normal" />
      <path
         style="fill:#636365;fill-opacity:0.435294;stroke:#000000;stroke-width:0.158432;stroke-linecap:round;stroke-linejoin:round;stroke-miterlimit:4;stroke-dasharray:none;stroke-opacity:1;paint-order:normal"
         d="m 5.2133708,152.43058 c 0.2445554,0.768 0.4891104,1.535 0.7336654,2.228 0.244553,0.692 0.4891131,1.308 0.7336631,1.787 0.2445599,0.479 0.48911,0.82 0.73367,0.991 0.24455,0.172 0.4891101,0.171 0.7336599,0 0.24456,-0.17 0.4891101,-0.512 0.73367,-0.991 0.2445502,-0.479 0.4891101,-1.095 0.73366,-1.787 0.2445603,-0.692 0.4891138,-1.46 0.7336738,-2.228"
         title="sin(x)"
         id="path1442-6-3-7-2" />
      <path
         style="fill:#285a79;fill-opacity:1;stroke:#000000;stroke-width:0.158432;stroke-linecap:round;stroke-linejoin:round;stroke-miterlimit:4;stroke-dasharray:none;stroke-opacity:1;paint-order:normal"
         d="m -2.0048139,152.43058 c -0.0214,-0.45142 -0.0425,-0.90224 -0.038,-1.30957 0.005,-0.40675 0.0361,-0.76882 0.11476,-1.05036 0.0787,-0.28155 0.20511,-0.48198 0.39044,-0.58249 0.1849801,-0.1011 0.4298904,-0.10051 0.73366055,0 0.30340001,0.0999 0.66643034,0.30094 1.07690034,0.58249 0.41042991,0.28154 0.86832951,0.64361 1.35256951,1.05036 0.484223,0.40674 0.994746,0.85815 1.505311,1.30957"
         title="sin(x)"
         id="path1442-0-2-5-2-6-5" />
      <path
         id="path1442-6-6-75-6-0-93-0"
         title="sin(x)"
         d="m 3.2239055,152.41355 c 0.510555,0.45142 1.020736,0.90224 1.505307,1.30957 0.484225,0.40675 0.942132,0.76882 1.352569,1.05036 0.410463,0.28155 0.773115,0.48198 1.076898,0.58249 0.304122,0.1011 0.548332,0.10051 0.73366,0 0.1857243,-0.0999 0.3117973,-0.30094 0.3904553,-0.58249 0.07866,-0.28154 0.109885,-0.64361 0.114752,-1.05036 0.0049,-0.40674 -0.01653,-0.85815 -0.03797,-1.30957"
         style="fill:#285a79;fill-opacity:1;stroke:#000000;stroke-width:0.158432;stroke-linecap:round;stroke-linejoin:round;stroke-miterlimit:4;stroke-dasharray:none;stroke-opacity:1;paint-order:normal" />
      <path
         id="path1442-6-3-7-2-6"
         title="sin(x)"
         d="m 15.481763,152.43058 c 0.244555,0.768 0.48911,1.535 0.733665,2.228 0.244553,0.692 0.489113,1.308 0.733663,1.787 0.24456,0.479 0.48911,0.82 0.73367,0.991 0.24455,0.172 0.48911,0.171 0.73366,0 0.24456,-0.17 0.48911,-0.512 0.73367,-0.991 0.24455,-0.479 0.48911,-1.095 0.73366,-1.787 0.24456,-0.692 0.489114,-1.46 0.733674,-2.228"
         style="fill:#636365;fill-opacity:0.435294;stroke:#000000;stroke-width:0.158432;stroke-linecap:round;stroke-linejoin:round;stroke-miterlimit:4;stroke-dasharray:none;stroke-opacity:1;paint-order:normal" />
      <path
         style="fill:#285a79;fill-opacity:1;stroke:#000000;stroke-width:0.158432;stroke-linecap:round;stroke-linejoin:round;stroke-miterlimit:4;stroke-dasharray:none;stroke-opacity:1;paint-order:normal"
         d="m 13.477726,152.41355 c 0.510554,0.45142 1.020735,0.90224 1.505306,1.30957 0.484226,0.40675 0.942132,0.76882 1.35257,1.05036 0.410462,0.28155 0.773115,0.48198 1.076897,0.58249 0.304123,0.1011 0.548333,0.10051 0.73366,0 0.185725,-0.0999 0.311798,-0.30094 0.390455,-0.58249 0.07866,-0.28154 0.109886,-0.64361 0.114753,-1.05036 0.0049,-0.40674 -0.01653,-0.85815 -0.03797,-1.30957"
         title="sin(x)"
         id="path1442-6-6-75-6-0-93" />
      <path
         style="fill:#636365;fill-opacity:0.435294;stroke:#000000;stroke-width:0.158432;stroke-linecap:round;stroke-linejoin:round;stroke-miterlimit:4;stroke-dasharray:none;stroke-opacity:1;paint-order:normal"
         d="m 10.346567,152.432 c 0.24455,-0.768 0.48911,-1.535 0.73366,-2.228 0.24456,-0.692 0.48912,-1.308 0.73367,-1.787 0.244559,-0.479 0.489109,-0.82 0.733669,-0.991 0.24455,-0.172 0.48911,-0.171 0.73366,0 0.24456,0.17 0.489106,0.512 0.733666,0.991 0.24455,0.479 0.48911,1.095 0.73366,1.787 0.24456,0.692 0.48911,1.46 0.73367,2.228"
         title="sin(x)"
         id="path1442-02-4-1-3" />
      <rect
         y="150.36176"
         x="17.175169"
         height="8.0261412"
         width="3.9999907"
         id="rect4337"
         style="fill:#ffffff;fill-opacity:1;stroke:none;stroke-width:0.12833;stroke-linecap:round;stroke-linejoin:round;stroke-miterlimit:4;stroke-dasharray:none;stroke-opacity:1" />
    </g>
    <path
       id="path1634-9"
       d="m 63.072848,142.03395 v 8.46553 h -5.551122"
       style="fill:none;stroke:#000000;stroke-width:0.1;stroke-linecap:butt;stroke-linejoin:miter;stroke-opacity:1;stroke-miterlimit:4;stroke-dasharray:none"
       sodipodi:nodetypes="ccc" />
    <g
       style="stroke-width:0.1;stroke-miterlimit:4;stroke-dasharray:none"
       id="g1338">
      <ellipse
         transform="rotate(-90)"
         ry="5.6042938"
         rx="8.3974075"
         cx="-134.9707"
         cy="47.888363"
         id="path871"
         style="fill:#656565;fill-opacity:1;stroke:#d32500;stroke-width:0.1;stroke-linejoin:round;stroke-miterlimit:4;stroke-dasharray:none" />
      <ellipse
         transform="rotate(-90)"
         ry="5.6042938"
         rx="8.3974075"
         cx="-134.9707"
         cy="62.705059"
         id="path871-3-6"
         style="fill:#ffffff;fill-opacity:1;stroke:#000000;stroke-width:0.1;stroke-linejoin:round;stroke-miterlimit:4;stroke-dasharray:none;stroke-opacity:1" />
      <path
         sodipodi:nodetypes="cccc"
         id="path905"
         d="m 47.673206,143.39187 14.87836,-0.13653 0.13764,-16.68365 -14.88276,0.0164"
         style="fill:#ffffff;fill-opacity:1;stroke:none;stroke-width:0.1;stroke-linecap:butt;stroke-linejoin:miter;stroke-miterlimit:4;stroke-dasharray:none;stroke-opacity:1" />
      <ellipse
         transform="rotate(-90)"
         style="fill:#c8c8c8;fill-opacity:1;stroke:#000003;stroke-width:0.1;stroke-linejoin:round;stroke-miterlimit:4;stroke-dasharray:none;stroke-opacity:1"
         id="path871-3"
         cy="47.888363"
         cx="-134.9707"
         rx="8.3974075"
         ry="5.6042938" />
      <path
         sodipodi:nodetypes="cc"
         id="path948"
         d="m 47.810506,143.36858 14.90361,-0.002"
         style="fill:none;stroke:#000000;stroke-width:0.1;stroke-linecap:butt;stroke-linejoin:miter;stroke-miterlimit:4;stroke-dasharray:none;stroke-opacity:1" />
      <path
         style="fill:none;stroke:#000000;stroke-width:0.1;stroke-linecap:butt;stroke-linejoin:miter;stroke-miterlimit:4;stroke-dasharray:none;stroke-opacity:1"
         d="m 47.810506,126.57565 14.90361,-0.002"
         id="path948-2"
         sodipodi:nodetypes="cc" />
      <ellipse
         transform="rotate(-90)"
         style="fill:#ffffff;fill-opacity:1;stroke:none;stroke-width:0.0721678;stroke-linejoin:round;stroke-miterlimit:4;stroke-dasharray:none;stroke-opacity:1"
         id="path871-3-7-9"
         cy="47.888363"
         cx="-134.9707"
         rx="4.3917389"
         ry="2.9309757" />
      <g
         style="fill:none;fill-opacity:1;stroke:#acacac;stroke-opacity:1"
         transform="matrix(1.0056202,0,0,1.0056202,2.9901985,44.539938)"
         id="g3283">
        <path
           id="path2894"
           d="m 40.007823,86.144923 9.195943,-9.19594"
           style="fill:none;fill-opacity:1;stroke:#acacac;stroke-width:0.264583px;stroke-linecap:butt;stroke-linejoin:miter;stroke-miterlimit:4;stroke-dasharray:none;stroke-opacity:1"
           mask="url(#mask3262)" />
        <path
           style="fill:none;fill-opacity:1;stroke:#acacac;stroke-width:0.264583px;stroke-linecap:butt;stroke-linejoin:miter;stroke-miterlimit:4;stroke-dasharray:none;stroke-opacity:1"
           d="m 40.007824,87.203263 9.195943,-9.19595"
           id="path2894-3"
           mask="url(#mask3258)" />
        <path
           id="path2894-3-6"
           d="m 40.007824,88.261593 9.195943,-9.19594"
           style="fill:none;fill-opacity:1;stroke:#acacac;stroke-width:0.264583px;stroke-linecap:butt;stroke-linejoin:miter;stroke-miterlimit:4;stroke-dasharray:none;stroke-opacity:1"
           mask="url(#mask3254)" />
        <path
           style="fill:none;fill-opacity:1;stroke:#acacac;stroke-width:0.264583px;stroke-linecap:butt;stroke-linejoin:miter;stroke-miterlimit:4;stroke-dasharray:none;stroke-opacity:1"
           d="m 40.007824,89.319923 9.195943,-9.19594"
           id="path2894-3-6-7"
           mask="url(#mask3250)" />
        <path
           id="path2894-3-6-7-5"
           d="m 40.007824,90.378263 9.195943,-9.19595"
           style="fill:none;fill-opacity:1;stroke:#acacac;stroke-width:0.264583px;stroke-linecap:butt;stroke-linejoin:miter;stroke-miterlimit:4;stroke-dasharray:none;stroke-opacity:1"
           mask="url(#mask3246)" />
        <path
           style="fill:none;fill-opacity:1;stroke:#acacac;stroke-width:0.264583px;stroke-linecap:butt;stroke-linejoin:miter;stroke-miterlimit:4;stroke-dasharray:none;stroke-opacity:1"
           d="m 40.007824,91.436593 9.195943,-9.19594"
           id="path2894-35"
           mask="url(#mask3242)" />
        <path
           id="path2894-3-62"
           d="m 40.007825,92.494933 9.195943,-9.19595"
           style="fill:none;fill-opacity:1;stroke:#acacac;stroke-width:0.264583px;stroke-linecap:butt;stroke-linejoin:miter;stroke-miterlimit:4;stroke-dasharray:none;stroke-opacity:1"
           mask="url(#mask3238)" />
        <path
           style="fill:none;fill-opacity:1;stroke:#acacac;stroke-width:0.264583px;stroke-linecap:butt;stroke-linejoin:miter;stroke-miterlimit:4;stroke-dasharray:none;stroke-opacity:1"
           d="m 40.007825,93.553273 9.195943,-9.19595"
           id="path2894-3-6-9"
           mask="url(#mask3234)" />
        <path
           id="path2894-3-6-7-1"
           d="m 40.007825,94.611613 9.195943,-9.19596"
           style="fill:none;fill-opacity:1;stroke:#acacac;stroke-width:0.264583px;stroke-linecap:butt;stroke-linejoin:miter;stroke-miterlimit:4;stroke-dasharray:none;stroke-opacity:1"
           mask="url(#mask3230)" />
        <path
           style="fill:none;fill-opacity:1;stroke:#acacac;stroke-width:0.264583px;stroke-linecap:butt;stroke-linejoin:miter;stroke-miterlimit:4;stroke-dasharray:none;stroke-opacity:1"
           d="m 40.007825,95.669953 9.195943,-9.19597"
           id="path2894-3-6-7-5-2"
           mask="url(#mask3226)" />
        <path
           style="fill:none;fill-opacity:1;stroke:#acacac;stroke-width:0.264583px;stroke-linecap:butt;stroke-linejoin:miter;stroke-miterlimit:4;stroke-dasharray:none;stroke-opacity:1"
           d="m 40.007823,96.728263 9.195943,-9.19595"
           id="path2894-7"
           mask="url(#mask3222)" />
        <path
           id="path2894-3-0"
           d="m 40.007824,97.786593 9.195944,-9.19594"
           style="fill:none;fill-opacity:1;stroke:#acacac;stroke-width:0.264583px;stroke-linecap:butt;stroke-linejoin:miter;stroke-miterlimit:4;stroke-dasharray:none;stroke-opacity:1"
           mask="url(#mask3218)" />
        <path
           style="fill:none;fill-opacity:1;stroke:#acacac;stroke-width:0.264583px;stroke-linecap:butt;stroke-linejoin:miter;stroke-miterlimit:4;stroke-dasharray:none;stroke-opacity:1"
           d="m 40.007824,98.844923 9.195944,-9.19594"
           id="path2894-3-6-93"
           mask="url(#mask3214)" />
        <path
           id="path2894-3-6-7-6"
           d="m 40.007824,99.903263 9.195944,-9.19595"
           style="fill:none;fill-opacity:1;stroke:#acacac;stroke-width:0.264583px;stroke-linecap:butt;stroke-linejoin:miter;stroke-miterlimit:4;stroke-dasharray:none;stroke-opacity:1"
           mask="url(#mask3210)" />
        <path
           style="fill:none;fill-opacity:1;stroke:#acacac;stroke-width:0.264583px;stroke-linecap:butt;stroke-linejoin:miter;stroke-miterlimit:4;stroke-dasharray:none;stroke-opacity:1"
           d="m 40.007824,100.96159 9.195944,-9.195937"
           id="path2894-3-6-7-5-0"
           mask="url(#mask3206)" />
        <path
           id="path2894-35-6"
           d="m 40.007824,102.01992 9.195944,-9.195937"
           style="fill:none;fill-opacity:1;stroke:#acacac;stroke-width:0.264583px;stroke-linecap:butt;stroke-linejoin:miter;stroke-miterlimit:4;stroke-dasharray:none;stroke-opacity:1"
           mask="url(#mask3202)" />
        <path
           style="fill:none;fill-opacity:1;stroke:#acacac;stroke-width:0.264583px;stroke-linecap:butt;stroke-linejoin:miter;stroke-miterlimit:4;stroke-dasharray:none;stroke-opacity:1"
           d="m 40.007825,103.07826 9.195944,-9.195937"
           id="path2894-3-62-2"
           mask="url(#mask3198)" />
      </g>
      <path
         mask="url(#mask3194)"
         style="fill:none;stroke:#000000;stroke-width:0.264583px;stroke-linecap:butt;stroke-linejoin:miter;stroke-miterlimit:4;stroke-dasharray:none;stroke-opacity:1"
         d="m 40.007825,104.1366 9.195944,-9.195947"
         id="path2894-3-6-9-6" />
      <path
         mask="url(#mask3190)"
         id="path2894-3-6-7-1-1"
         d="m 40.007825,105.19494 9.195944,-9.195957"
         style="fill:none;stroke:#000000;stroke-width:0.264583px;stroke-linecap:butt;stroke-linejoin:miter;stroke-miterlimit:4;stroke-dasharray:none;stroke-opacity:1" />
      <path
         mask="url(#mask3186)"
         style="fill:none;stroke:#000000;stroke-width:0.264583px;stroke-linecap:butt;stroke-linejoin:miter;stroke-miterlimit:4;stroke-dasharray:none;stroke-opacity:1"
         d="m 40.007825,106.25328 9.195944,-9.195957"
         id="path2894-3-6-7-5-2-8" />
      <ellipse
         ry="2.9309754"
         rx="4.3917389"
         cx="-134.9707"
         cy="47.888363"
         id="path871-3-7"
         style="fill:none;fill-opacity:1;stroke:#000003;stroke-width:0.0721678;stroke-linejoin:round;stroke-miterlimit:4;stroke-dasharray:none;stroke-opacity:1"
         transform="rotate(-90)" />
    </g>
    <path
       style="fill:none;stroke:#000000;stroke-width:0.1;stroke-linecap:butt;stroke-linejoin:miter;stroke-opacity:1;stroke-miterlimit:4;stroke-dasharray:none"
       d="m 47.852597,142.2168 v 8.28268 h 5.021955"
       id="path1634"
       sodipodi:nodetypes="ccc" />
    <ellipse
       transform="rotate(-90)"
       style="fill:#ffffff;fill-opacity:1;stroke:#000003;stroke-width:0.1;stroke-linejoin:round;stroke-miterlimit:4;stroke-dasharray:none;stroke-opacity:1"
       id="path871-3-7-3-6"
       cy="47.888363"
       cx="-142.18896"
       rx="0.61230129"
       ry="0.40863994" />
    <circle
       style="fill:#c8c8c8;fill-opacity:1;stroke:#000000;stroke-width:0.1;stroke-linecap:round;stroke-linejoin:round;stroke-miterlimit:4;stroke-dasharray:none;stroke-opacity:1;paint-order:normal"
       id="path1651"
       cx="53.194023"
       cy="150.48445"
       r="0.33611354" />
    <circle
       r="0.33611357"
       cy="150.48445"
       cx="-57.202251"
       id="path1651-4"
       style="fill:#c8c8c8;fill-opacity:1;stroke:#000000;stroke-width:0.1;stroke-linecap:round;stroke-linejoin:round;stroke-miterlimit:4;stroke-dasharray:none;stroke-opacity:1;paint-order:normal"
       transform="scale(-1,1)" />
    <text
       xml:space="preserve"
       style="font-style:normal;font-weight:normal;font-size:3.52778px;line-height:1.25;font-family:sans-serif;letter-spacing:0px;word-spacing:0px;fill:#000000;fill-opacity:1;stroke:none;stroke-width:0.1;stroke-miterlimit:4;stroke-dasharray:none"
       x="54.028172"
       y="153.80078"
       id="text1673"><tspan
         sodipodi:role="line"
         id="tspan1671"
         x="54.028172"
         y="153.80078"
         style="font-size:3.52778px;stroke-width:0.1;stroke-miterlimit:4;stroke-dasharray:none">V</tspan></text>
    <path
       style="fill:none;stroke:#000000;stroke-width:0.1;stroke-linecap:butt;stroke-linejoin:miter;stroke-opacity:1;stroke-miterlimit:4;stroke-dasharray:none"
       d="m 47.810507,126.57565 v -6.02807"
       id="path1675" />
    <path
       style="fill:none;stroke:#000000;stroke-width:0.1;stroke-linecap:butt;stroke-linejoin:miter;stroke-opacity:1;stroke-miterlimit:4;stroke-dasharray:none"
       d="M 47.82771,121.82829 H 62.788794"
       id="path1677"
       sodipodi:nodetypes="cc" />
    <path
       id="path1675-7"
       d="m 62.88442,126.57565 v -6.02807"
       style="fill:none;stroke:#000000;stroke-width:0.1;stroke-linecap:butt;stroke-linejoin:miter;stroke-opacity:1;stroke-miterlimit:4;stroke-dasharray:none" />
    <text
       id="text1673-8"
       y="120.91586"
       x="54.357361"
       style="font-style:normal;font-weight:normal;font-size:3.52777px;line-height:1.25;font-family:sans-serif;letter-spacing:0px;word-spacing:0px;fill:#000000;fill-opacity:1;stroke:none;stroke-width:0.1;stroke-miterlimit:4;stroke-dasharray:none"
       xml:space="preserve"><tspan
         style="font-size:3.52777px;stroke-width:0.1;stroke-miterlimit:4;stroke-dasharray:none"
         y="120.91586"
         x="54.357361"
         id="tspan1671-4"
         sodipodi:role="line">L</tspan></text>
    <g
       style="stroke-width:0.15843224;stroke-miterlimit:4;stroke-dasharray:none;paint-order:markers stroke fill"
       transform="matrix(0.63888406,0,0,0.62357807,27.90974,40.158703)"
       id="g1491-9-15">
      <path
         style="fill:#285a79;fill-opacity:1;stroke:#000000;stroke-width:0.158432;stroke-linecap:round;stroke-linejoin:round;stroke-miterlimit:4;stroke-dasharray:none;stroke-opacity:1;paint-order:normal"
         d="m 0.17173118,152.41439 c -0.02144,-0.45142 -0.04252,-0.90224 -0.03798,-1.30957 0.0049,-0.40675 0.03609,-0.76882 0.114757,-1.05036 0.07865,-0.28155 0.205108,-0.48198 0.390445,-0.58249 0.184975,-0.1011 0.42988592,-0.10051 0.73365942,0 0.303398,0.0999 0.666426,0.30094 1.076897,0.58249 0.410428,0.28154 0.868334,0.64361 1.35257,1.05036 0.484224,0.40674 0.994746,0.85815 1.505311,1.30957"
         title="sin(x)"
         id="path1442-0-2-5-2" />
      <path
         style="fill:#636365;fill-opacity:0.435294;stroke:#000000;stroke-width:0.15843224;stroke-linecap:round;stroke-linejoin:round;stroke-miterlimit:4;stroke-dasharray:none;stroke-opacity:1;paint-order:normal"
         d="m 0.0781716,152.432 c 0.2445554,-0.768 0.4891104,-1.535 0.7336654,-2.228 0.244553,-0.692 0.489113,-1.308 0.733663,-1.787 0.24456,-0.479 0.48911,-0.82 0.73367,-0.991 0.24455,-0.172 0.48911,-0.171 0.73366,0 0.24456,0.17 0.48911,0.512 0.73367,0.991 0.24455,0.479 0.48911,1.095 0.73366,1.787 0.24456,0.692 0.48911,1.46 0.73367,2.228"
         title="sin(x)"
         id="path1442-02-4" />
      <path
         id="path1442-6-3-7"
         title="sin(x)"
         d="m 5.2133708,152.43058 c 0.2445554,0.768 0.4891104,1.535 0.7336654,2.228 0.244553,0.692 0.4891131,1.308 0.7336631,1.787 0.2445599,0.479 0.48911,0.82 0.73367,0.991 0.24455,0.172 0.4891101,0.171 0.7336599,0 0.24456,-0.17 0.4891101,-0.512 0.73367,-0.991 0.2445502,-0.479 0.4891101,-1.095 0.73366,-1.787 0.2445603,-0.692 0.4891138,-1.46 0.7336738,-2.228"
         style="fill:#636365;fill-opacity:0.435294;stroke:#000000;stroke-width:0.15843224;stroke-linecap:round;stroke-linejoin:round;stroke-miterlimit:4;stroke-dasharray:none;stroke-opacity:1;paint-order:normal" />
      <path
         id="path1442-6-6-75-6-0"
         title="sin(x)"
         d="m 5.3064296,152.41355 c 0.510554,0.45142 1.020735,0.90224 1.505306,1.30957 0.484226,0.40675 0.942132,0.76882 1.35257,1.05036 0.410462,0.28155 0.773115,0.48198 1.076897,0.58249 0.304123,0.1011 0.548333,0.10051 0.73366,0 0.1857254,-0.0999 0.3117984,-0.30094 0.3904554,-0.58249 0.07866,-0.28154 0.109886,-0.64361 0.114753,-1.05036 0.0049,-0.40674 -0.01653,-0.85815 -0.03797,-1.30957"
         style="fill:#285a79;fill-opacity:1;stroke:#000000;stroke-width:0.158432;stroke-linecap:round;stroke-linejoin:round;stroke-miterlimit:4;stroke-dasharray:none;stroke-opacity:1;paint-order:normal" />
    </g>
    <g
       id="g1491-9-15-2"
       transform="matrix(0.63888406,0,0,0.62357807,34.471343,40.158703)"
       style="stroke-width:0.158432;stroke-miterlimit:4;stroke-dasharray:none;paint-order:markers stroke fill">
      <path
         id="path1442-0-2-5-2-3"
         title="sin(x)"
         d="m 0.17173118,152.41439 c -0.02144,-0.45142 -0.04252,-0.90224 -0.03798,-1.30957 0.0049,-0.40675 0.03609,-0.76882 0.114757,-1.05036 0.07865,-0.28155 0.205108,-0.48198 0.390445,-0.58249 0.184975,-0.1011 0.42988592,-0.10051 0.73365942,0 0.303398,0.0999 0.666426,0.30094 1.076897,0.58249 0.410428,0.28154 0.868334,0.64361 1.35257,1.05036 0.484224,0.40674 0.994746,0.85815 1.505311,1.30957"
         style="fill:#285a79;fill-opacity:1;stroke:#000000;stroke-width:0.158432;stroke-linecap:round;stroke-linejoin:round;stroke-miterlimit:4;stroke-dasharray:none;stroke-opacity:1;paint-order:normal" />
      <path
         id="path1442-02-4-7"
         title="sin(x)"
         d="m 0.0781716,152.432 c 0.2445554,-0.768 0.4891104,-1.535 0.7336654,-2.228 0.244553,-0.692 0.489113,-1.308 0.733663,-1.787 0.24456,-0.479 0.48911,-0.82 0.73367,-0.991 0.24455,-0.172 0.48911,-0.171 0.73366,0 0.24456,0.17 0.48911,0.512 0.73367,0.991 0.24455,0.479 0.48911,1.095 0.73366,1.787 0.24456,0.692 0.48911,1.46 0.73367,2.228"
         style="fill:#636365;fill-opacity:0.435294;stroke:#000000;stroke-width:0.158432;stroke-linecap:round;stroke-linejoin:round;stroke-miterlimit:4;stroke-dasharray:none;stroke-opacity:1;paint-order:normal" />
      <path
         style="fill:#636365;fill-opacity:0.435294;stroke:#000000;stroke-width:0.158432;stroke-linecap:round;stroke-linejoin:round;stroke-miterlimit:4;stroke-dasharray:none;stroke-opacity:1;paint-order:normal"
         d="m 5.2133708,152.43058 c 0.2445554,0.768 0.4891104,1.535 0.7336654,2.228 0.244553,0.692 0.4891131,1.308 0.7336631,1.787 0.2445599,0.479 0.48911,0.82 0.73367,0.991 0.24455,0.172 0.4891101,0.171 0.7336599,0 0.24456,-0.17 0.4891101,-0.512 0.73367,-0.991 0.2445502,-0.479 0.4891101,-1.095 0.73366,-1.787 0.2445603,-0.692 0.4891138,-1.46 0.7336738,-2.228"
         title="sin(x)"
         id="path1442-6-3-7-5" />
      <path
         style="fill:#285a79;fill-opacity:1;stroke:#000000;stroke-width:0.158432;stroke-linecap:round;stroke-linejoin:round;stroke-miterlimit:4;stroke-dasharray:none;stroke-opacity:1;paint-order:normal"
         d="m 5.3064296,152.41355 c 0.510554,0.45142 1.020735,0.90224 1.505306,1.30957 0.484226,0.40675 0.942132,0.76882 1.35257,1.05036 0.410462,0.28155 0.773115,0.48198 1.076897,0.58249 0.304123,0.1011 0.548333,0.10051 0.73366,0 0.1857254,-0.0999 0.3117984,-0.30094 0.3904554,-0.58249 0.07866,-0.28154 0.109886,-0.64361 0.114753,-1.05036 0.0049,-0.40674 -0.01653,-0.85815 -0.03797,-1.30957"
         title="sin(x)"
         id="path1442-6-6-75-6-0-9" />
    </g>
    <g
       style="stroke-width:0.158432;stroke-miterlimit:4;stroke-dasharray:none;paint-order:markers stroke fill"
       transform="matrix(0.63888406,0,0,0.62357807,41.030813,40.158703)"
       id="g1491-9-15-2-2">
      <path
         style="fill:#285a79;fill-opacity:1;stroke:#000000;stroke-width:0.158432;stroke-linecap:round;stroke-linejoin:round;stroke-miterlimit:4;stroke-dasharray:none;stroke-opacity:1;paint-order:normal"
         d="m 0.17173118,152.41439 c -0.02144,-0.45142 -0.04252,-0.90224 -0.03798,-1.30957 0.0049,-0.40675 0.03609,-0.76882 0.114757,-1.05036 0.07865,-0.28155 0.205108,-0.48198 0.390445,-0.58249 0.184975,-0.1011 0.42988592,-0.10051 0.73365942,0 0.303398,0.0999 0.666426,0.30094 1.076897,0.58249 0.410428,0.28154 0.868334,0.64361 1.35257,1.05036 0.484224,0.40674 0.994746,0.85815 1.505311,1.30957"
         title="sin(x)"
         id="path1442-0-2-5-2-3-2" />
      <path
         style="fill:#636365;fill-opacity:0.435294;stroke:#000000;stroke-width:0.158432;stroke-linecap:round;stroke-linejoin:round;stroke-miterlimit:4;stroke-dasharray:none;stroke-opacity:1;paint-order:normal"
         d="m 0.0781716,152.432 c 0.2445554,-0.768 0.4891104,-1.535 0.7336654,-2.228 0.244553,-0.692 0.489113,-1.308 0.733663,-1.787 0.24456,-0.479 0.48911,-0.82 0.73367,-0.991 0.24455,-0.172 0.48911,-0.171 0.73366,0 0.24456,0.17 0.48911,0.512 0.73367,0.991 0.24455,0.479 0.48911,1.095 0.73366,1.787 0.24456,0.692 0.48911,1.46 0.73367,2.228"
         title="sin(x)"
         id="path1442-02-4-7-8" />
      <path
         id="path1442-6-3-7-5-9"
         title="sin(x)"
         d="m 5.2133708,152.43058 c 0.2445554,0.768 0.4891104,1.535 0.7336654,2.228 0.244553,0.692 0.4891131,1.308 0.7336631,1.787 0.2445599,0.479 0.48911,0.82 0.73367,0.991 0.24455,0.172 0.4891101,0.171 0.7336599,0 0.24456,-0.17 0.4891101,-0.512 0.73367,-0.991 0.2445502,-0.479 0.4891101,-1.095 0.73366,-1.787 0.2445603,-0.692 0.4891138,-1.46 0.7336738,-2.228"
         style="fill:#636365;fill-opacity:0.435294;stroke:#000000;stroke-width:0.158432;stroke-linecap:round;stroke-linejoin:round;stroke-miterlimit:4;stroke-dasharray:none;stroke-opacity:1;paint-order:normal" />
      <path
         id="path1442-6-6-75-6-0-9-7"
         title="sin(x)"
         d="m 5.3064296,152.41355 c 0.510554,0.45142 1.020735,0.90224 1.505306,1.30957 0.484226,0.40675 0.942132,0.76882 1.35257,1.05036 0.410462,0.28155 0.773115,0.48198 1.076897,0.58249 0.304123,0.1011 0.548333,0.10051 0.73366,0 0.1857254,-0.0999 0.3117984,-0.30094 0.3904554,-0.58249 0.07866,-0.28154 0.109886,-0.64361 0.114753,-1.05036 0.0049,-0.40674 -0.01653,-0.85815 -0.03797,-1.30957"
         style="fill:#285a79;fill-opacity:1;stroke:#000000;stroke-width:0.158432;stroke-linecap:round;stroke-linejoin:round;stroke-miterlimit:4;stroke-dasharray:none;stroke-opacity:1;paint-order:normal" />
    </g>
    <path
       sodipodi:nodetypes="ccc"
       id="path3749"
       d="m 29.042262,144.83531 -1.412292,-2.17474 h 3.430026"
       style="fill:none;stroke:#000000;stroke-width:0.081;stroke-linecap:butt;stroke-linejoin:miter;stroke-miterlimit:4;stroke-dasharray:none;stroke-opacity:1;marker-start:url(#Arrow1Lstart);marker-end:url(#Arrow1Lend)" />
    <path
       id="path4161"
       d="m 27.596519,142.62606 v -3.51122"
       style="fill:none;stroke:#000000;stroke-width:0.079315;stroke-linecap:butt;stroke-linejoin:miter;stroke-miterlimit:4;stroke-dasharray:none;stroke-opacity:1;marker-end:url(#marker4189)" />
    <text
       id="text1673-1"
       y="143.15662"
       x="31.501427"
       style="font-style:normal;font-weight:normal;font-size:2.11667px;line-height:1.25;font-family:sans-serif;letter-spacing:0px;word-spacing:0px;fill:#000000;fill-opacity:1;stroke:none;stroke-width:0.1;stroke-miterlimit:4;stroke-dasharray:none"
       xml:space="preserve"><tspan
         style="font-size:2.11667px;stroke-width:0.1;stroke-miterlimit:4;stroke-dasharray:none"
         y="143.15662"
         x="31.501427"
         id="tspan1671-9"
         sodipodi:role="line">z</tspan></text>
    <text
       xml:space="preserve"
       style="font-style:normal;font-weight:normal;font-size:2.11667px;line-height:1.25;font-family:sans-serif;letter-spacing:0px;word-spacing:0px;fill:#000000;fill-opacity:1;stroke:none;stroke-width:0.1;stroke-miterlimit:4;stroke-dasharray:none"
       x="29.276075"
       y="145.80632"
       id="text1673-1-4"><tspan
         sodipodi:role="line"
         id="tspan1671-9-7"
         x="29.276075"
         y="145.80632"
         style="font-size:2.11667px;stroke-width:0.1;stroke-miterlimit:4;stroke-dasharray:none">y</tspan></text>
    <text
       xml:space="preserve"
       style="font-style:normal;font-weight:normal;font-size:2.11667px;line-height:1.25;font-family:sans-serif;letter-spacing:0px;word-spacing:0px;fill:#000000;fill-opacity:1;stroke:none;stroke-width:0.1;stroke-miterlimit:4;stroke-dasharray:none"
       x="27.059675"
       y="138.46317"
       id="text1673-1-8"><tspan
         sodipodi:role="line"
         id="tspan1671-9-4"
         x="27.059675"
         y="138.46317"
         style="font-size:2.11667px;stroke-width:0.1;stroke-miterlimit:4;stroke-dasharray:none">x</tspan></text>
    <path
       id="path4339"
       d="m 71.74717,133.31046 1.09197,1.89135"
       style="fill:none;stroke:#000000;stroke-width:0.05;stroke-linecap:butt;stroke-linejoin:miter;stroke-opacity:1;stroke-miterlimit:4;stroke-dasharray:0.05,0.05;stroke-dashoffset:0" />
    <path
       id="path4341"
       d="m 72.83914,135.20181 v 3.97378"
       style="fill:none;stroke:#000000;stroke-width:0.1;stroke-linecap:butt;stroke-linejoin:miter;stroke-opacity:1;stroke-miterlimit:4;stroke-dasharray:none" />
    <path
       id="path4343"
       d="m 74.307797,131.96428 v 3.2303"
       style="fill:none;stroke:#000000;stroke-width:0.05;stroke-linecap:butt;stroke-linejoin:miter;stroke-opacity:1;stroke-miterlimit:4;stroke-dasharray:0.05,0.05;stroke-dashoffset:0" />
    <path
       style="fill:none;stroke:#000000;stroke-width:0.1;stroke-linecap:butt;stroke-linejoin:miter;stroke-miterlimit:4;stroke-dasharray:none;stroke-opacity:1"
       d="m 74.310059,135.20181 v 3.97378"
       id="path4341-1" />
    <path
       id="path4360"
       d="m 72.838415,138.80694 h 1.472054"
       style="fill:none;stroke:#000000;stroke-width:0.1;stroke-linecap:butt;stroke-linejoin:miter;stroke-opacity:1;stroke-miterlimit:4;stroke-dasharray:none" />
    <text
       id="text4364"
       y="142.30035"
       x="70.245827"
       style="font-style:normal;font-weight:normal;font-size:3.52778px;line-height:1.25;font-family:sans-serif;letter-spacing:0px;word-spacing:0px;fill:#000000;fill-opacity:1;stroke:none;stroke-width:0.264583"
       xml:space="preserve"><tspan
         style="font-size:3.52778px;stroke-width:0.264583"
         y="142.30035"
         x="70.245827"
         id="tspan4362"
         sodipodi:role="line">$\Delta \Phi$</tspan></text>
  </g>
  <g
     inkscape:groupmode="layer"
     id="layer2"
     inkscape:label="Ebene 2"
     style="display:none">
    <path
       id="path865"
       d="m 38.971143,127.5 v 15 l 12.99038,7.5 v -15 z"
       style="fill:#e2e1e1;fill-opacity:1;stroke:#000000;stroke-width:0.264583px;stroke-linecap:butt;stroke-linejoin:miter;stroke-opacity:1" />
    <path
       id="path867"
       d="m 51.961523,135 12.990383,-7.5 v 15 L 51.961523,150"
       style="fill:#adadad;fill-opacity:1;stroke:#000000;stroke-width:0.264583px;stroke-linecap:butt;stroke-linejoin:miter;stroke-opacity:1" />
    <path
       id="path869"
       d="m 38.971143,127.5 12.99038,-7.5 12.990383,7.5 -12.990383,7.5 z"
       style="fill:#656565;fill-opacity:1;stroke:#000000;stroke-width:0.264583px;stroke-linecap:butt;stroke-linejoin:miter;stroke-opacity:1" />
  </g>
</svg>
